<svg xmlns="http://www.w3.org/2000/svg" viewBox="0 0 32 32" fill="none">
  <rect width="32" height="32" rx="4" fill="#060504"/>
  <!-- Stylised flame -->
  <path d="M16 28C16 28 8 22 8 14C8 10 11 7 13 6C13 6 12 9 14 11C14 11 13 7 17 5C17 5 16 9 19 11C19 11 21 9 21 6C21 6 24 9 24 14C24 22 16 28 16 28Z"
        fill="#e8491e"/>
  <path d="M16 26C16 26 11 21 11 15C11 12 13 10 14.5 9.5C14.5 9.5 14 12 16 13.5C16 13.5 15 10.5 18 9C18 9 17.5 12 19.5 13C19.5 13 21 11.5 21 9.5C21 9.5 23 12 23 15C23 21 16 26 16 26Z"
        fill="#ff7a3c" opacity="0.85"/>
  <ellipse cx="16" cy="19" rx="3" ry="4" fill="#ffba54" opacity="0.5"/>
</svg>
